<?xml version="1.0" standalone="no"?>
<!DOCTYPE svg PUBLIC "-//W3C//DTD SVG 20010904//EN"
 "http://www.w3.org/TR/2001/REC-SVG-20010904/DTD/svg10.dtd">
<svg version="1.0" xmlns="http://www.w3.org/2000/svg"
 width="700.000000pt" height="700.000000pt" viewBox="0 0 700.000000 700.000000"
 preserveAspectRatio="xMidYMid meet">
<metadata>
Created by potrace 1.14, written by Peter Selinger 2001-2017
</metadata>
<g transform="translate(0.000000,700.000000) scale(0.100000,-0.100000)"
fill="#000000" stroke="none">
<path d="M4121 6579 c-71 -9 -173 -40 -235 -71 -226 -113 -475 -409 -639 -758
-108 -231 -211 -581 -262 -890 -3 -19 -10 -60 -15 -90 -5 -30 -12 -73 -15 -95
-4 -22 -10 -67 -15 -100 -5 -33 -16 -118 -25 -190 -23 -191 -26 -217 -30 -245
-2 -14 -7 -56 -10 -95 -4 -38 -8 -77 -10 -85 -2 -8 -7 -46 -11 -85 -3 -38 -8
-78 -9 -87 -2 -9 -7 -48 -10 -85 -4 -37 -8 -75 -10 -83 -2 -8 -7 -42 -10 -75
-3 -33 -8 -69 -10 -80 -2 -11 -4 -32 -4 -47 -1 -25 -54 -83 -206 -224 -22 -20
-103 -96 -180 -169 -77 -73 -160 -152 -185 -175 -25 -23 -112 -106 -195 -185
-82 -78 -166 -157 -185 -175 -33 -30 -305 -288 -395 -375 -23 -22 -113 -107
-200 -190 -87 -82 -180 -170 -206 -195 -26 -25 -105 -99 -176 -166 -70 -66
-163 -154 -207 -195 -106 -100 -139 -168 -137 -284 2 -162 126 -290 295 -302
78 -6 161 16 213 57 24 18 141 128 343 320 103 98 373 354 530 503 47 44 130
124 185 176 253 241 480 457 495 471 9 8 33 31 54 50 l37 34 -6 -54 c-9 -94
-16 -154 -20 -180 -2 -14 -6 -56 -10 -95 -3 -38 -8 -88 -11 -110 -12 -100 -24
-215 -38 -370 -3 -33 -8 -76 -11 -95 -2 -19 -7 -64 -10 -100 -3 -36 -8 -81
-10 -100 -2 -19 -7 -60 -10 -90 -3 -30 -7 -75 -10 -100 -3 -25 -7 -65 -9 -90
-3 -25 -8 -76 -12 -115 -5 -38 -8 -108 -9 -155 0 -94 20 -151 79 -218 147
-167 420 -132 521 68 31 62 38 99 60 350 3 36 8 81 10 100 5 45 20 193 31 310
3 36 7 76 9 90 13 131 18 177 18 188 0 19 3 16 31 -43 33 -66 101 -128 170
-154 40 -15 69 -18 136 -15 l85 4 63 -43 c36 -24 158 -140 290 -276 320 -330
468 -449 667 -534 139 -60 255 -86 401 -91 250 -9 559 99 806 281 133 98 456
420 522 520 153 232 -6 509 -287 499 -92 -4 -159 -39 -228 -119 -91 -106 -191
-208 -348 -357 -9 -8 -41 -31 -71 -51 -157 -102 -220 -124 -360 -124 -98 0
-110 2 -174 33 -147 69 -219 131 -519 447 l-76 80 47 33 c389 275 690 741 771
1187 45 252 9 542 -96 764 -28 58 -92 172 -102 181 -3 3 -24 27 -46 55 -97
121 -226 221 -359 279 -32 14 -62 26 -67 26 -4 0 -19 4 -34 10 l-25 10 32 47
c196 284 395 752 433 1016 3 27 8 59 11 70 16 78 23 355 11 442 -25 181 -84
337 -180 480 -153 225 -366 325 -626 294z m120 -662 c46 -65 70 -173 69 -312
-1 -110 -3 -134 -20 -205 -6 -26 -13 -54 -14 -61 -19 -100 -95 -307 -157 -433
-116 -231 -274 -461 -469 -685 -97 -111 -100 -114 -101 -104 -2 15 10 150 16
173 2 8 6 38 10 65 9 72 44 316 50 345 5 28 22 118 30 166 2 17 18 84 35 150
17 65 33 126 35 134 12 54 83 247 113 310 36 76 127 235 146 257 6 6 22 26 36
44 62 83 165 177 195 178 6 0 17 -10 26 -22z m98 -2346 c110 -56 163 -126 207
-276 32 -109 28 -250 -10 -380 -70 -236 -238 -489 -422 -636 -76 -60 -217
-143 -292 -171 -50 -19 -61 -19 -128 -8 -168 29 -307 -26 -379 -150 l-26 -45
6 50 c10 100 16 151 25 225 5 41 12 102 15 135 3 33 7 76 10 95 7 55 19 176
30 290 3 30 7 66 10 80 2 14 7 58 10 98 4 41 8 83 10 94 3 11 5 38 7 60 2 36
15 51 221 251 120 117 224 215 231 219 7 4 21 5 32 4 27 -4 92 20 129 48 83
64 208 70 314 17z"/>
</g>
</svg>
